<svg xmlns="http://www.w3.org/2000/svg" xmlns:xlink="http://www.w3.org/1999/xlink" width="500" zoomAndPan="magnify" viewBox="0 0 375 374.999991" height="500" preserveAspectRatio="xMidYMid meet" version="1.0"><defs><clipPath id="19a9422f5d"><path d="M 72 37.5 L 303 37.5 L 303 143 L 72 143 Z M 72 37.5 " clip-rule="nonzero"/></clipPath><clipPath id="69ea150519"><path d="M 37.125 112 L 337.875 112 L 337.875 337.5 L 37.125 337.5 Z M 37.125 112 " clip-rule="nonzero"/></clipPath></defs><g clip-path="url(#19a9422f5d)"><path fill="#c9a660" d="M 83.332031 117.597656 C 83.414062 122.113281 84.375 134.1875 91.984375 141.785156 C 92.554688 142.355469 93.246094 142.644531 94.058594 142.644531 C 94.230469 142.644531 94.398438 142.628906 94.570312 142.597656 C 131.4375 136.039062 151.164062 121.082031 157.570312 115.382812 C 158.652344 116.390625 159.878906 117.164062 161.253906 117.707031 C 162.628906 118.25 164.054688 118.523438 165.535156 118.523438 L 209.117188 118.523438 C 210.597656 118.523438 212.023438 118.253906 213.398438 117.710938 C 214.773438 117.167969 216.003906 116.394531 217.082031 115.386719 C 223.476562 121.082031 243.210938 136.046875 280.085938 142.609375 C 280.257812 142.640625 280.429688 142.65625 280.601562 142.65625 C 281.410156 142.65625 282.101562 142.371094 282.675781 141.796875 C 290.28125 134.199219 291.246094 122.125 291.324219 117.609375 C 294.808594 115.128906 302.296875 107.75 302.171875 90.199219 C 302.296875 72.621094 294.808594 65.230469 291.324219 62.75 C 291.246094 58.234375 290.285156 46.160156 282.675781 38.5625 C 282.335938 38.226562 281.9375 37.984375 281.480469 37.839844 C 281.023438 37.695312 280.558594 37.667969 280.085938 37.753906 C 243.230469 44.308594 223.496094 59.265625 217.089844 64.96875 C 216.007812 63.957031 214.78125 63.179688 213.402344 62.632812 C 212.027344 62.089844 210.597656 61.816406 209.117188 61.8125 L 165.535156 61.8125 C 164.054688 61.8125 162.628906 62.085938 161.25 62.628906 C 159.875 63.171875 158.648438 63.949219 157.566406 64.957031 C 151.164062 59.253906 131.4375 44.292969 94.570312 37.734375 C 94.101562 37.648438 93.636719 37.675781 93.175781 37.820312 C 92.71875 37.964844 92.320312 38.207031 91.984375 38.546875 C 84.375 46.148438 83.414062 58.21875 83.332031 62.734375 C 79.851562 65.214844 72.363281 72.597656 72.488281 90.144531 C 72.363281 107.726562 79.851562 115.113281 83.332031 117.597656 Z M 285.390625 61.5625 C 278.734375 61.914062 262.21875 63.84375 247.476562 74.042969 C 247.15625 74.265625 246.886719 74.539062 246.675781 74.863281 C 246.464844 75.191406 246.324219 75.546875 246.253906 75.929688 C 246.183594 76.3125 246.191406 76.695312 246.273438 77.074219 C 246.355469 77.457031 246.507812 77.804688 246.726562 78.125 C 246.949219 78.445312 247.222656 78.710938 247.550781 78.921875 C 247.878906 79.132812 248.234375 79.273438 248.617188 79.34375 C 249 79.414062 249.382812 79.40625 249.761719 79.324219 C 250.144531 79.242188 250.492188 79.089844 250.8125 78.867188 C 266.167969 68.246094 284.214844 67.429688 287.679688 67.359375 C 289.699219 68.671875 296.40625 74.238281 296.300781 90.199219 C 296.414062 106.34375 289.523438 111.839844 287.625 113.042969 C 284.035156 112.96875 266.097656 112.101562 250.816406 101.535156 C 250.5 101.3125 250.148438 101.160156 249.765625 101.078125 C 249.386719 100.996094 249.003906 100.988281 248.621094 101.058594 C 248.238281 101.128906 247.882812 101.269531 247.554688 101.480469 C 247.230469 101.691406 246.953125 101.957031 246.734375 102.277344 C 246.511719 102.597656 246.359375 102.945312 246.277344 103.328125 C 246.195312 103.707031 246.191406 104.089844 246.261719 104.472656 C 246.328125 104.855469 246.472656 105.210938 246.683594 105.539062 C 246.894531 105.863281 247.160156 106.140625 247.480469 106.359375 C 262.214844 116.550781 278.730469 118.488281 285.394531 118.847656 C 285.167969 123.011719 284.125 131.058594 279.53125 136.546875 C 243.722656 129.839844 225.046875 114.703125 220.292969 110.363281 C 220.667969 109.199219 220.855469 108.011719 220.855469 106.792969 L 220.855469 73.550781 C 220.855469 72.335938 220.667969 71.144531 220.296875 69.984375 C 225.035156 65.632812 243.597656 50.539062 279.53125 43.8125 C 284.136719 49.3125 285.171875 57.402344 285.390625 61.554688 Z M 165.535156 67.683594 L 209.117188 67.683594 C 209.503906 67.683594 209.886719 67.71875 210.261719 67.796875 C 210.640625 67.871094 211.007812 67.984375 211.363281 68.128906 C 211.71875 68.277344 212.058594 68.460938 212.378906 68.671875 C 212.699219 68.886719 212.992188 69.132812 213.265625 69.402344 C 213.539062 69.675781 213.78125 69.972656 213.996094 70.292969 C 214.210938 70.613281 214.390625 70.949219 214.539062 71.308594 C 214.6875 71.664062 214.796875 72.03125 214.875 72.40625 C 214.949219 72.785156 214.988281 73.167969 214.988281 73.550781 L 214.988281 106.785156 C 214.988281 107.171875 214.949219 107.550781 214.871094 107.929688 C 214.796875 108.304688 214.683594 108.671875 214.535156 109.027344 C 214.386719 109.382812 214.207031 109.71875 213.992188 110.039062 C 213.777344 110.359375 213.535156 110.65625 213.261719 110.925781 C 212.988281 111.199219 212.695312 111.441406 212.375 111.65625 C 212.054688 111.867188 211.714844 112.050781 211.359375 112.195312 C 211.003906 112.34375 210.636719 112.453125 210.261719 112.53125 C 209.882812 112.605469 209.503906 112.644531 209.117188 112.644531 L 165.535156 112.644531 C 165.148438 112.644531 164.765625 112.605469 164.390625 112.53125 C 164.011719 112.453125 163.644531 112.34375 163.289062 112.195312 C 162.933594 112.046875 162.59375 111.867188 162.273438 111.652344 C 161.953125 111.4375 161.65625 111.195312 161.386719 110.921875 C 161.113281 110.648438 160.871094 110.355469 160.65625 110.035156 C 160.441406 109.714844 160.261719 109.375 160.113281 109.019531 C 159.964844 108.664062 159.851562 108.296875 159.777344 107.917969 C 159.703125 107.542969 159.664062 107.160156 159.664062 106.773438 L 159.664062 73.550781 C 159.664062 73.167969 159.703125 72.785156 159.777344 72.40625 C 159.851562 72.03125 159.964844 71.664062 160.113281 71.308594 C 160.261719 70.949219 160.441406 70.613281 160.65625 70.292969 C 160.871094 69.972656 161.113281 69.675781 161.386719 69.402344 C 161.65625 69.132812 161.953125 68.886719 162.273438 68.671875 C 162.59375 68.460938 162.933594 68.277344 163.289062 68.132812 C 163.644531 67.984375 164.011719 67.871094 164.390625 67.796875 C 164.765625 67.71875 165.148438 67.683594 165.535156 67.683594 Z M 87.046875 67.292969 C 90.667969 67.332031 108.523438 68.226562 123.832031 78.8125 C 124.152344 79.035156 124.5 79.1875 124.882812 79.269531 C 125.261719 79.351562 125.644531 79.355469 126.027344 79.285156 C 126.410156 79.21875 126.765625 79.078125 127.089844 78.867188 C 127.417969 78.65625 127.691406 78.390625 127.914062 78.070312 C 128.132812 77.75 128.285156 77.398438 128.367188 77.019531 C 128.449219 76.640625 128.457031 76.257812 128.386719 75.875 C 128.316406 75.492188 128.175781 75.136719 127.964844 74.808594 C 127.753906 74.484375 127.488281 74.207031 127.167969 73.988281 C 112.433594 63.789062 95.910156 61.875 89.253906 61.511719 C 89.472656 57.359375 90.503906 49.300781 95.121094 43.792969 C 130.925781 50.496094 149.601562 65.628906 154.355469 69.972656 C 153.984375 71.136719 153.796875 72.328125 153.800781 73.550781 L 153.800781 106.785156 C 153.800781 108.003906 153.988281 109.195312 154.359375 110.355469 C 149.625 114.707031 131.0625 129.800781 95.128906 136.53125 C 90.519531 131.023438 89.484375 122.941406 89.261719 118.792969 C 95.925781 118.433594 112.441406 116.5 127.179688 106.304688 C 127.5 106.082031 127.765625 105.808594 127.976562 105.484375 C 128.1875 105.15625 128.328125 104.800781 128.394531 104.417969 C 128.464844 104.035156 128.460938 103.652344 128.378906 103.273438 C 128.296875 102.894531 128.144531 102.542969 127.921875 102.222656 C 127.703125 101.902344 127.425781 101.636719 127.101562 101.425781 C 126.773438 101.214844 126.417969 101.074219 126.035156 101.003906 C 125.652344 100.9375 125.269531 100.941406 124.890625 101.023438 C 124.511719 101.105469 124.160156 101.257812 123.839844 101.480469 C 108.488281 112.097656 90.445312 112.925781 86.976562 112.992188 C 84.953125 111.675781 78.246094 106.113281 78.355469 90.148438 C 78.242188 73.929688 85.191406 68.460938 87.050781 67.292969 Z M 87.046875 67.292969 " fill-opacity="1" fill-rule="nonzero"/></g><g clip-path="url(#69ea150519)"><path fill="#c9a660" d="M 337.332031 201.394531 C 337.242188 200.890625 337.03125 200.445312 336.707031 200.050781 C 336.382812 199.660156 335.980469 199.371094 335.503906 199.1875 L 277.039062 176.664062 L 326.371094 158.398438 C 326.730469 158.265625 327.046875 158.070312 327.328125 157.816406 C 327.609375 157.558594 327.832031 157.261719 327.996094 156.917969 C 328.160156 156.578125 328.257812 156.214844 328.28125 155.835938 C 328.304688 155.457031 328.257812 155.085938 328.140625 154.726562 L 314.945312 114.671875 C 314.824219 114.300781 314.636719 113.96875 314.382812 113.675781 C 314.128906 113.382812 313.828125 113.144531 313.480469 112.972656 C 313.132812 112.796875 312.765625 112.695312 312.375 112.664062 C 311.988281 112.636719 311.609375 112.683594 311.238281 112.804688 C 310.871094 112.925781 310.539062 113.113281 310.242188 113.367188 C 309.949219 113.621094 309.714844 113.921875 309.539062 114.269531 C 309.363281 114.617188 309.261719 114.984375 309.230469 115.371094 C 309.203125 115.761719 309.25 116.140625 309.371094 116.507812 L 321.679688 153.867188 L 267.71875 173.855469 C 267.144531 174.070312 266.683594 174.425781 266.335938 174.925781 C 265.984375 175.425781 265.808594 175.980469 265.804688 176.589844 C 265.800781 177.199219 265.96875 177.757812 266.3125 178.261719 C 266.65625 178.765625 267.113281 179.128906 267.683594 179.347656 L 328.925781 202.941406 L 193.804688 324.339844 L 250.992188 158.832031 C 251.121094 158.464844 251.171875 158.085938 251.152344 157.699219 C 251.128906 157.308594 251.03125 156.941406 250.859375 156.589844 C 250.691406 156.238281 250.460938 155.933594 250.167969 155.675781 C 249.878906 155.417969 249.546875 155.226562 249.179688 155.097656 C 248.8125 154.96875 248.433594 154.917969 248.042969 154.941406 C 247.65625 154.964844 247.285156 155.0625 246.9375 155.234375 C 246.585938 155.40625 246.28125 155.636719 246.023438 155.929688 C 245.765625 156.21875 245.574219 156.550781 245.445312 156.917969 L 187.324219 325.113281 L 129.207031 156.910156 C 129.082031 156.539062 128.886719 156.210938 128.628906 155.921875 C 128.371094 155.628906 128.066406 155.398438 127.71875 155.226562 C 127.367188 155.058594 127 154.960938 126.609375 154.9375 C 126.222656 154.914062 125.84375 154.964844 125.476562 155.09375 C 125.109375 155.21875 124.777344 155.414062 124.488281 155.671875 C 124.195312 155.929688 123.964844 156.234375 123.796875 156.582031 C 123.625 156.933594 123.527344 157.300781 123.503906 157.691406 C 123.480469 158.078125 123.535156 158.457031 123.660156 158.824219 L 180.84375 324.339844 L 45.726562 202.941406 L 106.96875 179.347656 C 107.539062 179.128906 107.996094 178.765625 108.339844 178.261719 C 108.683594 177.757812 108.851562 177.199219 108.847656 176.589844 C 108.84375 175.980469 108.667969 175.425781 108.316406 174.925781 C 107.964844 174.425781 107.503906 174.070312 106.933594 173.855469 L 52.980469 153.875 L 65.285156 116.515625 C 65.410156 116.148438 65.453125 115.769531 65.425781 115.378906 C 65.398438 114.992188 65.292969 114.625 65.121094 114.277344 C 64.945312 113.929688 64.710938 113.628906 64.414062 113.375 C 64.121094 113.121094 63.785156 112.933594 63.417969 112.808594 C 63.046875 112.6875 62.667969 112.640625 62.28125 112.671875 C 61.890625 112.699219 61.523438 112.800781 61.175781 112.976562 C 60.828125 113.152344 60.527344 113.386719 60.273438 113.683594 C 60.019531 113.976562 59.832031 114.308594 59.710938 114.679688 L 46.515625 154.722656 C 46.394531 155.085938 46.347656 155.457031 46.371094 155.835938 C 46.398438 156.214844 46.492188 156.574219 46.65625 156.917969 C 46.820312 157.257812 47.042969 157.558594 47.324219 157.8125 C 47.605469 158.070312 47.925781 158.261719 48.28125 158.394531 L 97.613281 176.664062 L 39.148438 199.1875 C 38.914062 199.277344 38.695312 199.394531 38.492188 199.539062 C 38.289062 199.6875 38.105469 199.855469 37.945312 200.050781 C 37.785156 200.242188 37.652344 200.453125 37.546875 200.679688 C 37.441406 200.910156 37.363281 201.144531 37.320312 201.394531 C 37.273438 201.640625 37.261719 201.886719 37.277344 202.136719 C 37.296875 202.390625 37.347656 202.632812 37.425781 202.871094 C 37.507812 203.109375 37.617188 203.332031 37.757812 203.542969 C 37.894531 203.75 38.058594 203.9375 38.246094 204.105469 L 185.320312 336.234375 C 185.890625 336.742188 186.5625 337.007812 187.324219 337.03125 C 188.105469 337.054688 188.773438 336.789062 189.332031 336.242188 L 336.40625 204.113281 C 336.785156 203.769531 337.058594 203.359375 337.222656 202.875 C 337.390625 202.390625 337.425781 201.898438 337.332031 201.394531 Z M 337.332031 201.394531 " fill-opacity="1" fill-rule="nonzero"/></g><path fill="#c9a660" d="M 187.324219 162.523438 C 186.941406 162.523438 186.558594 162.558594 186.179688 162.632812 C 185.804688 162.710938 185.4375 162.820312 185.078125 162.96875 C 184.722656 163.117188 184.386719 163.296875 184.066406 163.511719 C 183.746094 163.726562 183.449219 163.96875 183.175781 164.242188 C 182.902344 164.511719 182.660156 164.808594 182.445312 165.128906 C 182.230469 165.449219 182.050781 165.789062 181.902344 166.144531 C 181.753906 166.5 181.644531 166.867188 181.570312 167.246094 C 181.492188 167.625 181.457031 168.007812 181.457031 168.390625 C 181.457031 168.777344 181.492188 169.160156 181.570312 169.535156 C 181.644531 169.914062 181.753906 170.28125 181.902344 170.636719 C 182.050781 170.992188 182.230469 171.332031 182.445312 171.652344 C 182.660156 171.972656 182.902344 172.269531 183.175781 172.542969 C 183.449219 172.8125 183.746094 173.058594 184.066406 173.273438 C 184.386719 173.484375 184.722656 173.667969 185.078125 173.8125 C 185.4375 173.960938 185.804688 174.074219 186.179688 174.148438 C 186.558594 174.222656 186.941406 174.261719 187.324219 174.261719 C 187.710938 174.261719 188.09375 174.222656 188.472656 174.148438 C 188.847656 174.074219 189.214844 173.960938 189.570312 173.8125 C 189.929688 173.667969 190.265625 173.484375 190.585938 173.273438 C 190.90625 173.058594 191.203125 172.8125 191.476562 172.542969 C 191.75 172.269531 191.992188 171.972656 192.207031 171.652344 C 192.421875 171.332031 192.601562 170.992188 192.75 170.636719 C 192.894531 170.28125 193.007812 169.914062 193.082031 169.535156 C 193.15625 169.160156 193.195312 168.777344 193.195312 168.390625 C 193.195312 168.007812 193.15625 167.625 193.082031 167.246094 C 193.007812 166.867188 192.894531 166.503906 192.746094 166.144531 C 192.597656 165.789062 192.417969 165.453125 192.203125 165.132812 C 191.988281 164.8125 191.746094 164.515625 191.472656 164.242188 C 191.203125 163.972656 190.90625 163.726562 190.585938 163.511719 C 190.265625 163.300781 189.925781 163.117188 189.570312 162.96875 C 189.214844 162.824219 188.847656 162.710938 188.46875 162.636719 C 188.09375 162.558594 187.710938 162.523438 187.324219 162.523438 Z M 187.324219 162.523438 " fill-opacity="1" fill-rule="nonzero"/><path fill="#c9a660" d="M 187.324219 216.257812 C 186.941406 216.257812 186.558594 216.296875 186.179688 216.371094 C 185.804688 216.445312 185.4375 216.558594 185.078125 216.703125 C 184.722656 216.851562 184.386719 217.03125 184.066406 217.246094 C 183.746094 217.460938 183.449219 217.703125 183.175781 217.976562 C 182.902344 218.25 182.660156 218.546875 182.445312 218.867188 C 182.230469 219.1875 182.050781 219.523438 181.902344 219.882812 C 181.753906 220.238281 181.644531 220.605469 181.570312 220.980469 C 181.492188 221.359375 181.457031 221.742188 181.457031 222.128906 C 181.457031 222.511719 181.492188 222.894531 181.570312 223.273438 C 181.644531 223.652344 181.753906 224.019531 181.902344 224.375 C 182.050781 224.730469 182.230469 225.066406 182.445312 225.386719 C 182.660156 225.707031 182.902344 226.003906 183.175781 226.277344 C 183.449219 226.550781 183.746094 226.792969 184.066406 227.007812 C 184.386719 227.222656 184.722656 227.402344 185.078125 227.550781 C 185.4375 227.699219 185.804688 227.808594 186.179688 227.882812 C 186.558594 227.960938 186.941406 227.996094 187.324219 227.996094 C 187.710938 227.996094 188.09375 227.960938 188.472656 227.882812 C 188.847656 227.808594 189.214844 227.699219 189.570312 227.550781 C 189.929688 227.402344 190.265625 227.222656 190.585938 227.007812 C 190.90625 226.792969 191.203125 226.550781 191.476562 226.277344 C 191.75 226.003906 191.992188 225.707031 192.207031 225.386719 C 192.421875 225.066406 192.601562 224.730469 192.75 224.375 C 192.894531 224.019531 193.007812 223.652344 193.082031 223.273438 C 193.15625 222.894531 193.195312 222.511719 193.195312 222.128906 C 193.195312 221.742188 193.15625 221.359375 193.082031 220.984375 C 193.007812 220.605469 192.894531 220.238281 192.746094 219.882812 C 192.597656 219.527344 192.417969 219.1875 192.203125 218.867188 C 191.988281 218.546875 191.746094 218.25 191.472656 217.980469 C 191.203125 217.707031 190.90625 217.464844 190.585938 217.25 C 190.265625 217.035156 189.925781 216.855469 189.570312 216.707031 C 189.214844 216.558594 188.847656 216.449219 188.46875 216.371094 C 188.09375 216.296875 187.710938 216.257812 187.324219 216.257812 Z M 187.324219 216.257812 " fill-opacity="1" fill-rule="nonzero"/></svg>