<svg xmlns="http://www.w3.org/2000/svg" xmlns:xlink="http://www.w3.org/1999/xlink" width="500" zoomAndPan="magnify" viewBox="0 0 375 374.999991" height="500" preserveAspectRatio="xMidYMid meet" version="1.0"><defs><clipPath id="92d0ba4aa3"><path d="M 0 0.644531 L 374.964844 0.644531 L 374.964844 374.71875 L 0 374.71875 Z M 0 0.644531 " clip-rule="nonzero"/></clipPath></defs><g clip-path="url(#92d0ba4aa3)"><path fill="#ffffff" d="M 52.210938 325.613281 C 52.246094 326.238281 52.722656 326.3125 53.101562 326.421875 C 53.984375 326.671875 54.863281 327.449219 55.789062 326.578125 C 55.945312 326.425781 56.03125 325.984375 55.929688 325.8125 C 55.261719 324.710938 54.199219 325.3125 53.292969 325.304688 C 52.914062 325.296875 52.535156 325.515625 52.210938 325.613281 Z M 50.429688 327.886719 C 50.792969 329.046875 51.277344 330.035156 52.632812 329.886719 C 53.195312 329.820312 53.699219 329.09375 53.390625 328.609375 C 52.71875 327.574219 51.625 327.542969 50.429688 327.886719 Z M 51.335938 323.375 C 52.222656 324.113281 53.234375 323.757812 54.1875 323.683594 C 54.972656 323.625 55.578125 323.292969 55.222656 322.320312 C 54.898438 321.433594 54.371094 320.707031 53.355469 321.304688 C 52.53125 321.785156 51.558594 322.246094 51.335938 323.375 Z M 39.632812 318.296875 C 40.597656 319.789062 41.789062 320.984375 43.757812 321.542969 C 44.042969 319.644531 43.628906 318.113281 42.714844 316.519531 C 41.605469 317.015625 40.46875 317.128906 39.632812 318.296875 Z M 38.023438 329.34375 C 39.59375 330.625 41.085938 331.847656 42.777344 333.230469 C 43.726562 331.015625 44.269531 329.074219 43.726562 326.695312 C 41.683594 327.367188 39.832031 327.953125 38.023438 329.34375 Z M 45.117188 333.214844 C 47.050781 332.601562 48.929688 332.292969 50.710938 330.953125 C 49.078125 329.390625 48.46875 327.140625 45.804688 326.808594 C 45.484375 328.972656 44.570312 330.898438 45.117188 333.214844 Z M 34.953125 313.574219 C 37.503906 316.949219 38.460938 317.167969 41.296875 315.453125 C 43.285156 314.25 42.976562 312.882812 41.816406 311.265625 C 39.695312 312.449219 37.539062 313.050781 34.953125 313.574219 Z M 44.871094 315.679688 C 44.929688 317.003906 44.796875 317.761719 45.023438 318.390625 C 45.628906 320.074219 44.785156 322.691406 46.664062 323.355469 C 48.441406 323.980469 49.882812 321.957031 51.277344 320.777344 C 51.449219 320.632812 51.425781 320.265625 51.515625 319.914062 C 49.523438 318.644531 47.511719 317.363281 44.871094 315.679688 Z M 39.125 320.347656 C 38.804688 320.414062 38.480469 320.484375 38.160156 320.550781 C 38.269531 322.976562 37.050781 325.054688 36.441406 327.832031 C 39.386719 326.976562 41.8125 326.269531 43.875 324.179688 C 42.160156 322.796875 40.640625 321.570312 39.125 320.347656 Z M 65.96875 330.085938 C 66.238281 323.359375 65.421875 322.679688 59.523438 324.4375 C 58.417969 324.765625 57.84375 325.242188 57.742188 326.425781 C 57.628906 327.746094 58.480469 328.179688 59.457031 328.453125 C 61.605469 329.0625 63.675781 330.023438 65.96875 330.085938 Z M 101.488281 291.394531 C 98.78125 287.46875 95.652344 283.960938 93.023438 280.0625 C 92.53125 279.328125 91.984375 278.050781 90.742188 279.136719 C 89.691406 280.050781 89.070312 281.132812 90.378906 282.386719 C 93.835938 285.683594 97.171875 289.125 101.488281 291.394531 Z M 65.148438 321.492188 C 63.507812 319.847656 62.277344 318.480469 61.382812 316.875 C 60.667969 315.589844 59.875 315.28125 58.765625 316.421875 C 58.277344 316.929688 57.746094 317.398438 57.207031 317.863281 C 56.132812 318.785156 55.644531 319.773438 56.421875 321.191406 C 57.09375 322.421875 57.84375 323.214844 59.402344 322.964844 C 61.210938 322.675781 63.050781 322.542969 65.148438 321.492188 Z M 63.957031 331.71875 C 61.660156 330.496094 59.410156 330.050781 57.253906 329.347656 C 55.675781 328.832031 54.835938 329.8125 54.097656 330.902344 C 53.332031 332.039062 54.285156 332.789062 54.917969 333.488281 C 56.304688 335.007812 57.476562 336.792969 59.503906 338.085938 C 60.804688 335.796875 62.039062 333.890625 63.957031 331.71875 Z M 32.382812 314.585938 C 32.585938 320.484375 31.441406 325.675781 28.484375 330.691406 C 33.898438 330.503906 35.125 326.824219 36.308594 323.085938 C 37.449219 319.460938 36.574219 316.648438 32.382812 314.585938 Z M 102.339844 313.378906 C 96.976562 314.316406 96.964844 314.316406 95.984375 318.324219 C 94.886719 322.832031 94.585938 327.371094 95.746094 331.910156 C 96.109375 333.332031 96.210938 334.96875 98.253906 336.386719 C 97.898438 328.195312 100.140625 321.03125 102.339844 313.378906 Z M 39.199219 345.441406 C 40.988281 342.585938 41.332031 340.007812 42.121094 337.601562 C 42.394531 336.761719 42.167969 335.941406 41.773438 335.136719 C 39.40625 330.304688 34.679688 329.328125 30.222656 332.949219 C 34.355469 336 37.308594 339.929688 39.199219 345.441406 Z M 58.664062 314.082031 C 52.484375 312.402344 47.6875 309.25 43.234375 304.214844 C 43.21875 309.351562 43.867188 312.964844 47.554688 315.6875 C 52.574219 319.378906 53.902344 319.40625 58.664062 314.082031 Z M 41.496094 344.835938 C 44.558594 343.355469 46.980469 342.1875 49.398438 341.023438 C 51.953125 339.785156 54.925781 340.25 57.761719 339.285156 C 56.585938 337.066406 54.898438 335.710938 53.535156 334.097656 C 52.699219 333.117188 51.574219 333.039062 50.398438 333.140625 C 46.703125 333.464844 44.183594 335.539062 43.121094 339.164062 C 42.640625 340.792969 42.183594 342.425781 41.496094 344.835938 Z M 104.078125 256.644531 C 101.15625 257.320312 98.679688 257.886719 96.203125 258.464844 C 93.667969 259.054688 91.082031 259.066406 88.5 259.101562 C 86.050781 259.136719 83.59375 259.113281 81.144531 259.113281 C 85.8125 262.121094 90.75 263.902344 95.910156 265.082031 C 97.171875 265.367188 98.511719 265.574219 99.410156 264.246094 C 100.980469 261.910156 102.792969 259.71875 104.078125 256.644531 Z M 26.6875 304.949219 C 27.804688 307.460938 29.382812 308.738281 30.769531 310.136719 C 33.011719 312.398438 36.640625 312.359375 40.640625 310.34375 C 43.433594 308.9375 41.300781 306.851562 41.460938 305.105469 C 41.546875 304.179688 41.566406 303.097656 40.457031 301.96875 C 36.386719 303.941406 31.816406 304.710938 26.6875 304.949219 Z M 78.738281 333.300781 C 77.375 328.785156 77.566406 324.839844 77.4375 320.855469 C 74.261719 320.914062 71.601562 322.011719 68.847656 322.640625 C 68.121094 322.804688 67.527344 323.152344 67.375 323.96875 C 66.996094 326.007812 67.589844 327.925781 68.164062 329.832031 C 68.695312 331.597656 70.34375 331.445312 71.660156 331.773438 C 73.71875 332.285156 75.8125 332.679688 78.738281 333.300781 Z M 107.65625 254.652344 C 105.453125 257.957031 103.210938 261.242188 101.0625 264.582031 C 100.171875 265.964844 100.605469 267.351562 101.511719 268.589844 C 103.628906 271.484375 105.71875 274.402344 107.917969 277.234375 C 108.707031 278.246094 109.449219 279.496094 111.378906 279.925781 C 108.609375 271.53125 107.28125 263.394531 107.65625 254.652344 Z M 68.550781 306.292969 C 66.734375 308.222656 65.15625 309.863281 63.617188 311.535156 C 61.292969 314.058594 61.246094 314.179688 63.230469 316.960938 C 64.550781 318.804688 65.867188 321.164062 68.402344 321.011719 C 71.101562 320.847656 73.867188 320.191406 76.804688 318.683594 C 72.617188 315.265625 70.769531 310.898438 68.550781 306.292969 Z M 294.980469 348.621094 C 280.339844 346.496094 265.804688 344.195312 251.097656 341.09375 C 251.933594 342.476562 253.003906 342.574219 253.921875 342.953125 C 260.023438 345.453125 266.347656 347.289062 272.632812 349.257812 C 280.15625 351.617188 287.519531 349.78125 294.980469 348.621094 Z M 100.355469 311.480469 C 92.496094 305.078125 87.519531 297.226562 84.253906 287.664062 C 82.777344 289.394531 81.84375 290.65625 80.738281 291.742188 C 79.207031 293.25 79.398438 294.574219 80.582031 296.230469 C 83 299.617188 85.234375 303.132812 87.953125 306.289062 C 90.035156 308.707031 92.425781 310.710938 95.261719 312.214844 C 96.996094 313.132812 98.453125 312.949219 100.355469 311.480469 Z M 78.390625 335.199219 C 75.082031 333.644531 71.785156 333.496094 68.675781 332.683594 C 65.546875 331.863281 60.691406 336.269531 60.992188 339.46875 C 61.03125 339.875 61.195312 340.351562 61.46875 340.632812 C 64.097656 343.320312 66.308594 346.4375 69.605469 348.851562 C 71.496094 343.480469 74.191406 339.011719 78.390625 335.199219 Z M 39.308594 289.855469 C 33.445312 294.425781 26.761719 295.539062 19.738281 295.867188 C 23.414062 303.257812 24.597656 303.945312 31.792969 303.039062 C 33.203125 302.863281 34.613281 302.558594 35.972656 302.148438 C 40.773438 300.695312 40.910156 300.464844 40.480469 295.589844 C 40.332031 293.894531 40.246094 292.175781 39.308594 289.855469 Z M 41.707031 292.46875 C 41.90625 294.816406 42.105469 297.164062 42.296875 299.515625 C 42.371094 300.386719 42.609375 301.15625 43.230469 301.84375 C 45.921875 304.820312 48.523438 307.855469 52.121094 309.855469 C 58.996094 313.683594 60.496094 313.441406 65.324219 307.359375 C 65.464844 307.179688 65.390625 306.832031 65.453125 306.242188 C 55.933594 304.648438 48.488281 299.367188 41.707031 292.46875 Z M 9.269531 336.96875 C 12.519531 337.253906 14.132812 335.863281 15.492188 333.84375 C 17.441406 330.960938 18.800781 327.832031 19.84375 324.53125 C 21.867188 318.128906 21.753906 311.570312 21.65625 304.945312 C 21.609375 301.867188 20.417969 299.949219 17.832031 297.179688 C 17.839844 311.554688 14.722656 324.355469 9.269531 336.96875 Z M 97.765625 338.292969 C 96.398438 337.324219 95.628906 338.210938 94.824219 338.6875 C 88.269531 342.542969 84.074219 348.378906 80.851562 355.101562 C 79.117188 358.710938 78.96875 361.878906 82.109375 364.765625 C 83.78125 366.308594 84.371094 368.929688 86.8125 369.867188 C 87.441406 365.914062 88.007812 362.242188 88.617188 358.578125 C 89.257812 354.746094 90.550781 351.121094 92.046875 347.542969 C 93.460938 344.152344 96.140625 341.53125 97.765625 338.292969 Z M 16.542969 335.1875 C 20.222656 334.324219 23.589844 334.085938 25.683594 331.683594 C 30.261719 326.425781 31.238281 319.945312 30.875 313.1875 C 30.851562 312.800781 30.683594 312.335938 30.425781 312.050781 C 28.273438 309.671875 26.082031 307.324219 23.898438 304.964844 C 23.886719 315.613281 22.449219 325.59375 16.542969 335.1875 Z M 37.28125 356.234375 C 47.25 351.5 56.691406 347.34375 67.972656 350.5625 C 65.75 346.808594 63.085938 344.453125 60.570312 341.992188 C 60.117188 341.550781 59.265625 341.429688 58.574219 341.347656 C 53.175781 340.710938 48.527344 342.636719 43.984375 345.347656 C 40.054688 347.691406 38.714844 351.390625 37.28125 356.234375 Z M 17.003906 336.988281 C 26.523438 341.460938 30.644531 349.207031 34.050781 357.710938 C 39.691406 349.597656 38.585938 346.144531 35.050781 340.058594 C 34.042969 338.320312 32.589844 336.921875 31.082031 335.585938 C 28.984375 333.730469 26.886719 332.890625 24.121094 334.371094 C 22.265625 335.359375 20.144531 335.863281 17.003906 336.988281 Z M 13.199219 285.597656 C 15.8125 293.605469 18.421875 295.253906 26.042969 293.960938 C 28.597656 293.527344 31.085938 292.894531 33.453125 291.808594 C 40.007812 288.816406 40.121094 288.628906 38.804688 281.480469 C 38.765625 281.269531 38.480469 281.097656 38.210938 280.796875 C 30.390625 284.847656 21.96875 286 13.199219 285.597656 Z M 77.816406 359.28125 C 79.351562 354.105469 81.488281 350.394531 83.898438 346.804688 C 86.292969 343.234375 89.65625 340.597656 93.132812 337.453125 C 89.226562 336.3125 85.6875 335.949219 82.175781 335.460938 C 81.054688 335.308594 80.277344 335.871094 79.46875 336.5 C 75.347656 339.707031 72.820312 343.945312 71.375 348.894531 C 71.085938 349.871094 70.820312 350.835938 71.582031 351.75 C 73.480469 354.03125 75.371094 356.328125 77.816406 359.28125 Z M 95.269531 335.519531 C 92.703125 328.8125 93.550781 322.339844 94.933594 315.414062 C 89.730469 316.914062 85.195312 318.214844 80.667969 319.546875 C 79.78125 319.808594 79.207031 320.433594 79.125 321.402344 C 78.816406 324.855469 78.667969 328.292969 80.070312 331.582031 C 80.464844 332.515625 80.886719 333.605469 81.964844 333.773438 C 86.160156 334.433594 90.304688 335.550781 95.269531 335.519531 Z M 94.664062 313.59375 C 86.597656 309.109375 83.066406 301.679688 77.972656 295.257812 C 75.40625 298.234375 73.070312 300.925781 70.753906 303.632812 C 70.199219 304.28125 69.6875 304.921875 70.128906 305.921875 C 71.917969 309.992188 73.601562 314.113281 77.242188 316.984375 C 78.265625 317.792969 79.234375 318.503906 80.726562 318.042969 C 85.078125 316.691406 89.539062 315.671875 94.664062 313.59375 Z M 33.808594 369.441406 C 50.5625 367.34375 67.167969 365.089844 84.183594 370.71875 C 83.324219 368.070312 81.683594 366.8125 80.703125 365.15625 C 78.957031 362.207031 76.277344 360.890625 73.011719 360.277344 C 67.5625 359.257812 62.183594 359.558594 56.78125 360.550781 C 48.566406 362.066406 40.925781 365.042969 33.808594 369.441406 Z M 75.1875 358.988281 C 73.066406 355.21875 70.890625 352.515625 66.796875 351.726562 C 63.390625 351.070312 60.03125 350.582031 56.570312 350.992188 C 50.929688 351.65625 45.792969 353.832031 40.75 356.261719 C 35.847656 358.628906 32.460938 362.78125 30.617188 368.839844 C 44.617188 361.570312 58.785156 356.15625 75.1875 358.988281 Z M 6.414062 274.324219 C 7.5 277.441406 9.003906 279.535156 10.171875 281.800781 C 10.996094 283.394531 12.242188 283.933594 13.972656 284.054688 C 20.347656 284.496094 26.558594 283.867188 32.59375 281.703125 C 38.695312 279.515625 38.714844 279.511719 38.09375 273.140625 C 37.988281 272.0625 38.339844 270.839844 37.21875 269.816406 C 32.347656 271.160156 27.472656 272.808594 22.382812 273.675781 C 17.277344 274.542969 12.160156 274.683594 6.414062 274.324219 Z M 25.914062 370.234375 C 28.894531 367.472656 30.707031 364.929688 32.332031 362.230469 C 32.957031 361.1875 33.175781 360.117188 32.796875 358.949219 C 29.894531 349.90625 25.027344 342.410156 16.269531 337.972656 C 15.601562 337.632812 14.929688 337.367188 14.226562 337.640625 C 12.3125 338.386719 10.085938 338.308594 7.890625 340.039062 C 18.464844 347.269531 22.640625 358.148438 25.914062 370.234375 Z M 7.09375 335.878906 C 7.527344 335.6875 7.902344 335.648438 8.015625 335.453125 C 8.519531 334.597656 9.015625 333.722656 9.394531 332.804688 C 12.4375 325.335938 14.265625 317.558594 15.621094 309.617188 C 17.160156 300.605469 16.324219 292.277344 10.359375 284.878906 C 8.75 282.882812 7.671875 280.453125 6.347656 278.226562 C 9.289062 297.53125 8.929688 316.652344 7.09375 335.878906 Z M 188.625 345.945312 C 188.714844 345.496094 188.820312 345.304688 188.761719 345.226562 C 188.347656 344.648438 187.941406 344.058594 187.457031 343.542969 C 182.011719 337.726562 177.636719 331.179688 174.355469 323.933594 C 170.976562 316.476562 168.261719 308.753906 165.691406 300.988281 C 165.355469 299.984375 165.253906 298.855469 163.90625 298.078125 C 163.714844 309.570312 165.171875 320.433594 169.523438 330.8125 C 171.191406 334.796875 173.148438 338.628906 175.882812 342.003906 C 176.957031 343.335938 178.035156 344.910156 179.839844 345.152344 C 182.765625 345.539062 185.703125 346.101562 188.625 345.945312 Z M 88.613281 282.628906 C 85.738281 284.414062 85.027344 286.507812 86.449219 289.300781 C 86.96875 290.316406 87.226562 291.457031 87.679688 292.507812 C 90.453125 298.914062 94.417969 304.457031 99.734375 309 C 100.90625 310 102.175781 311.285156 103.914062 310.71875 C 108.617188 309.179688 113.316406 307.605469 118.535156 305.015625 C 107.070312 298.707031 97.179688 291.472656 88.613281 282.628906 Z M 118.113281 307.109375 C 113.90625 308.667969 110.71875 309.960938 107.460938 311.019531 C 105.335938 311.710938 104.113281 313.035156 103.457031 315.097656 C 102.070312 319.480469 100.792969 323.890625 100.121094 328.4375 C 99.804688 330.550781 99.941406 332.726562 99.882812 334.875 C 99.859375 335.820312 100.140625 336.558594 101.214844 336.742188 C 105.835938 337.507812 110.429688 338.488281 115.632812 338.566406 C 112.273438 327.796875 114.542969 317.808594 118.113281 307.109375 Z M 123.941406 224.976562 C 123.128906 227.550781 124.179688 228.519531 124.804688 229.570312 C 132.214844 242.078125 140.933594 253.597656 151.023438 264.074219 C 155.308594 268.527344 159.925781 272.605469 165.199219 275.875 C 169.171875 278.339844 169.589844 278.242188 173.027344 274.257812 C 155.371094 259.433594 139.609375 242.671875 123.941406 224.976562 Z M 166.800781 278.847656 C 147.570312 266.394531 134.773438 248.167969 122.765625 229.464844 C 121.363281 229.84375 121.246094 230.8125 120.847656 231.515625 C 120.277344 232.507812 119.835938 233.570312 119.300781 234.589844 C 118.847656 235.457031 119.039062 236.140625 119.601562 236.9375 C 127.257812 247.847656 134.40625 259.144531 143.8125 268.71875 C 147.9375 272.914062 152.1875 276.984375 157.195312 280.144531 C 161.78125 283.039062 162.484375 282.921875 166.800781 278.847656 Z M 97.011719 267.382812 C 75.972656 259.929688 55.828125 251.75 39.707031 234.777344 C 40.300781 237.527344 41.320312 238.929688 42.199219 240.382812 C 47.730469 249.535156 55.03125 256.976562 64.238281 262.394531 C 71.164062 266.46875 78.292969 270.203125 85.347656 274.0625 C 86.222656 274.542969 87.167969 274.925781 88.109375 275.253906 C 89.917969 275.875 91.476562 275.636719 92.640625 273.90625 C 94.066406 271.78125 95.824219 269.867188 97.011719 267.382812 Z M 76.863281 294.230469 C 68.609375 293.542969 62.167969 290.597656 56.132812 286.613281 C 50.160156 282.671875 45.246094 277.53125 39.957031 272.484375 C 40.105469 277.828125 40.664062 282.996094 41.292969 288.164062 C 41.355469 288.675781 41.773438 289.191406 42.136719 289.609375 C 45.0625 292.949219 47.996094 296.277344 51.65625 298.863281 C 55.691406 301.710938 60.054688 303.738281 64.96875 304.519531 C 66.8125 304.8125 68.242188 304.453125 69.480469 302.890625 C 71.597656 300.210938 73.902344 297.679688 76.863281 294.230469 Z M 132.757812 298.480469 C 118.957031 290.53125 107.382812 281.15625 99.015625 267.699219 C 97.101562 270.300781 95.671875 272.429688 94.046875 274.390625 C 92.71875 276.003906 92.878906 277.296875 94.03125 278.960938 C 99.042969 286.199219 105.023438 292.539062 111.632812 298.3125 C 113.796875 300.203125 116.183594 301.789062 118.679688 303.21875 C 119.714844 303.816406 120.703125 304.351562 121.890625 303.808594 C 125.359375 302.21875 129 300.960938 132.757812 298.480469 Z M 110.976562 253.847656 C 109.867188 254.710938 109.835938 255.605469 109.757812 256.425781 C 109.050781 263.835938 109.90625 271.070312 112.464844 278.050781 C 113.492188 280.847656 114.832031 283.734375 116.972656 285.714844 C 121.726562 290.109375 127.117188 293.71875 132.894531 296.6875 C 133.644531 297.074219 134.382812 297.496094 135.324219 297.347656 C 137.066406 297.070312 144.289062 292.851562 145.949219 290.917969 C 129.503906 283.109375 120.96875 267.765625 110.976562 253.847656 Z M 37.917969 222.515625 C 36.992188 227.035156 37.613281 230.125 40.507812 233.292969 C 48.082031 241.566406 56.851562 248.03125 66.820312 253.066406 C 71.054688 255.207031 75.265625 256.84375 80.097656 257.261719 C 88.054688 257.960938 95.84375 257.898438 103.410156 255.015625 C 104.339844 254.664062 105.363281 254.515625 106.121094 253.777344 C 107.117188 252.804688 107 252.03125 105.65625 251.609375 C 104.839844 251.351562 103.976562 251.257812 103.140625 251.070312 C 96.847656 249.652344 90.582031 248.117188 84.265625 246.839844 C 69.476562 243.847656 56.445312 237.226562 44.644531 227.992188 C 42.511719 226.320312 40.4375 224.570312 37.917969 222.515625 Z M 134.59375 299.574219 C 129.773438 301.84375 125.648438 303.761719 121.558594 305.742188 C 120.660156 306.175781 119.96875 306.878906 119.582031 307.898438 C 116.167969 316.871094 114.203125 325.992188 116.363281 335.625 C 116.890625 337.953125 117.800781 339.347656 120.539062 339.542969 C 126.386719 339.953125 132.210938 340.75 138.046875 341.386719 C 138.792969 341.46875 139.480469 341.433594 139.746094 340.160156 C 133.5 327.703125 132.492188 314.1875 134.59375 299.574219 Z M 147.984375 292.929688 C 144.058594 294.285156 140.710938 296.507812 137.183594 298.324219 C 136.128906 298.863281 136.171875 299.972656 136.023438 300.957031 C 134.296875 312.511719 134.777344 323.871094 139.066406 334.890625 C 141.769531 341.835938 141.75 341.949219 149.097656 342.457031 C 152.546875 342.699219 155.996094 343.523438 159.613281 343.128906 C 151.371094 327.246094 147.121094 310.8125 147.984375 292.929688 Z M 162.390625 284.164062 C 159.535156 285.855469 157.832031 287.257812 155.882812 287.9375 C 150.214844 289.917969 149.027344 294.261719 149.21875 299.503906 C 149.273438 300.9375 149.207031 302.382812 149.359375 303.800781 C 150.414062 313.835938 152.722656 323.578125 156.367188 332.988281 C 157.507812 335.933594 158.839844 338.796875 160.761719 341.339844 C 161.441406 342.242188 162 343.382812 163.230469 343.609375 C 167.222656 344.347656 171.238281 344.753906 175.839844 344.46875 C 170.601562 337.828125 167.496094 330.8125 165.359375 323.3125 C 163.292969 316.078125 162.546875 308.679688 162.410156 301.203125 C 162.316406 295.90625 162.390625 290.609375 162.390625 284.164062 Z M 160.160156 283.765625 C 148.480469 276.773438 139.9375 267.5625 132.300781 257.453125 C 128.503906 252.425781 124.984375 247.183594 121.34375 242.042969 C 120.847656 241.339844 120.425781 240.578125 119.878906 239.921875 C 118.328125 238.070312 117.625 238.070312 116.378906 240.0625 C 114.859375 242.488281 113.566406 245.066406 111.964844 247.433594 C 110.742188 249.238281 110.8125 250.707031 112.015625 252.492188 C 117.40625 260.433594 122.699219 268.441406 128.90625 275.789062 C 133.597656 281.34375 139.351562 285.550781 145.589844 289.167969 C 146.976562 289.96875 148.335938 290.746094 149.980469 289.757812 C 153.160156 287.859375 156.363281 286 160.160156 283.765625 Z M 171.824219 282.285156 C 171.722656 283.445312 171.605469 283.753906 171.6875 283.992188 C 177.632812 301.199219 186.738281 316.121094 201.902344 326.902344 C 212.492188 334.429688 223.957031 340.183594 235.648438 345.769531 C 243.242188 349.398438 250.855469 350.417969 258.914062 350.460938 C 262.136719 350.476562 265.359375 350.464844 268.875 350.464844 C 268.023438 349.046875 266.9375 349.035156 266.042969 348.761719 C 254.632812 345.238281 243.613281 340.71875 232.976562 335.335938 C 208.753906 323.082031 187.917969 306.824219 172.9375 283.785156 C 172.703125 283.429688 172.429688 283.101562 171.824219 282.285156 Z M 108.597656 249.464844 C 104.625 248.390625 101 247.246094 97.652344 245.457031 C 94.234375 243.632812 90.792969 241.851562 87.433594 239.925781 C 84.074219 238.003906 80.746094 236.011719 77.503906 233.890625 C 74.386719 231.851562 71.359375 229.660156 68.355469 227.453125 C 65.226562 225.164062 62.25 222.664062 59.535156 219.894531 C 56.828125 217.125 54.109375 214.351562 51.621094 211.394531 C 49.132812 208.429688 46.945312 205.222656 44.589844 202.144531 C 42.324219 199.179688 41.265625 195.429688 38.125 191.804688 C 37.933594 201.242188 37.773438 209.671875 37.589844 218.097656 C 37.558594 219.515625 38.195312 220.542969 39.21875 221.441406 C 49.648438 230.609375 60.851562 238.511719 74.339844 242.5625 C 84.648438 245.660156 95.15625 247.957031 105.699219 250.097656 C 106.496094 250.261719 107.335938 250.625 108.597656 249.464844 Z M 86.339844 281.738281 C 74.320312 280.910156 64.386719 276.226562 54.90625 270.378906 C 49.355469 266.957031 44.640625 262.558594 40.726562 257.335938 C 40.222656 256.660156 39.140625 255.957031 40.136719 254.777344 C 40.488281 255.078125 40.878906 255.300781 41.125 255.632812 C 49.933594 267.40625 62.152344 274.007812 75.761719 278.484375 C 79.054688 279.570312 82.445312 280.136719 85.933594 279.960938 C 87.5625 279.878906 89.109375 279.691406 89.351562 277.414062 C 81.058594 273.878906 73.292969 269.28125 65.441406 264.863281 C 54.5625 258.746094 46.054688 250.179688 39.839844 239.339844 C 39.417969 238.597656 39.359375 237.339844 37.824219 237.566406 C 37.582031 247.226562 38.554688 256.792969 39.023438 266.382812 C 39.089844 267.707031 39.617188 268.855469 40.457031 269.902344 C 47.203125 278.277344 54.972656 285.390625 64.890625 289.878906 C 68.050781 291.308594 71.359375 292.234375 74.816406 292.5625 C 76.238281 292.695312 77.792969 292.878906 78.847656 291.636719 C 81.410156 288.613281 84.105469 285.675781 86.339844 281.738281 Z M 168.59375 280.457031 C 163.492188 282.832031 163.324219 283.121094 164.089844 288.140625 C 164.15625 288.566406 164.269531 288.980469 164.347656 289.410156 C 166.316406 300.523438 170.550781 310.90625 174.796875 321.269531 C 178.320312 329.859375 183.460938 337.445312 190.03125 344.054688 C 191.539062 345.570312 193.121094 346.414062 195.273438 346.558594 C 209.320312 347.46875 223.359375 348.460938 237.40625 349.402344 C 237.859375 349.433594 238.609375 349.652344 238.585938 348.679688 C 237.550781 347.609375 236.117188 347.304688 234.804688 346.777344 C 222.339844 341.761719 210.75 335.214844 199.945312 327.230469 C 193.40625 322.398438 187.789062 316.730469 183.117188 310.085938 C 177.371094 301.90625 173.078125 293.023438 169.957031 283.550781 C 169.601562 282.472656 169.503906 281.285156 168.59375 280.457031 Z M 44.460938 136.53125 C 43.980469 137.265625 43.605469 137.585938 43.558594 137.945312 C 42.777344 143.773438 42.042969 149.605469 41.285156 155.429688 C 41.105469 156.808594 41.699219 157.925781 42.335938 159.066406 C 47.097656 167.585938 52.054688 175.976562 57.8125 183.875 C 72.460938 203.953125 90.539062 220.351562 111.453125 233.621094 C 117.019531 237.148438 116.347656 237.109375 119.597656 230.683594 C 120.34375 229.214844 119.875 228.394531 118.527344 227.5625 C 113.015625 224.160156 108.261719 219.742188 103.214844 215.726562 C 79.160156 196.59375 61.605469 172.421875 48.4375 144.867188 C 47.152344 142.175781 45.871094 139.492188 44.460938 136.53125 Z M 46.78125 120.539062 C 45.539062 122.261719 45.84375 124.378906 45.351562 126.289062 C 44.3125 130.363281 44.359375 133.996094 46.660156 138 C 50.664062 144.945312 53.527344 152.511719 57.566406 159.496094 C 72.546875 185.398438 92.210938 207.007812 116.457031 224.488281 C 117.273438 225.074219 118.09375 225.664062 118.972656 226.148438 C 119.671875 226.53125 120.511719 227.386719 121.257812 226.546875 C 122.089844 225.609375 122.953125 224.453125 122.132812 223.070312 C 121.699219 222.335938 121.070312 221.71875 120.511719 221.066406 C 117.691406 217.800781 114.863281 214.546875 112.050781 211.285156 C 88.15625 183.585938 66.101562 154.574219 48.460938 122.40625 C 48.058594 121.671875 47.804688 120.785156 46.78125 120.539062 Z M 287.328125 345.367188 C 286.296875 343.863281 285.28125 343.660156 284.402344 343.25 C 246.277344 325.355469 210.429688 303.75 177.289062 277.714844 C 176.949219 277.445312 176.578125 277.210938 176.277344 276.90625 C 174.882812 275.507812 173.726562 276.316406 172.507812 277.226562 C 171.117188 278.269531 171.980469 279.203125 172.546875 280.171875 C 176.039062 286.136719 179.769531 291.9375 184.496094 297.011719 C 197.824219 311.316406 212.792969 323.523438 230.339844 332.351562 C 235.652344 335.019531 240.796875 337.789062 246.972656 338.71875 C 254.605469 339.871094 262.128906 341.953125 269.785156 343.171875 C 275.425781 344.070312 281.058594 345.1875 287.328125 345.367188 Z M 40.632812 160.613281 C 39.9375 169.183594 39.257812 177.332031 38.636719 185.480469 C 38.542969 186.730469 38.476562 187.929688 39.089844 189.226562 C 45.992188 203.769531 55.890625 215.882812 68.550781 225.757812 C 77.867188 233.03125 88.039062 238.941406 98.574219 244.242188 C 100.742188 245.332031 103.027344 246.246094 105.34375 246.988281 C 109.753906 248.394531 109.785156 248.320312 112.074219 244.480469 C 113.023438 242.875 113.875 241.210938 114.886719 239.644531 C 115.828125 238.183594 115.441406 237.320312 113.945312 236.644531 C 111.058594 235.339844 108.363281 233.683594 105.773438 231.875 C 80.101562 213.933594 58.679688 192.082031 43.652344 164.34375 C 43 163.136719 42.675781 161.636719 40.632812 160.613281 Z M 374.964844 374.800781 C 371.257812 374.960938 368.121094 373.902344 364.988281 373.054688 C 346.816406 368.121094 328.921875 362.320312 311.574219 354.984375 C 308.367188 353.625 305.617188 353.664062 302.539062 354.957031 C 295.53125 357.90625 289.578125 362.308594 284.25 367.660156 C 282.554688 369.363281 280.710938 370.933594 279.03125 372.480469 C 279.738281 369.816406 283.785156 365.464844 289.898438 360.675781 C 294.21875 357.292969 299.042969 354.804688 304.269531 352.617188 C 302.128906 350.609375 299.867188 350.070312 297.332031 350.4375 C 291.492188 351.28125 285.632812 351.851562 279.734375 351.921875 C 278.375 351.941406 277.285156 352.476562 276.109375 353.046875 C 266.917969 357.492188 259.34375 364.058594 252.101562 371.089844 C 251.296875 371.871094 250.777344 372.984375 249.375 373.425781 C 248.730469 371.796875 250.140625 371.113281 250.859375 370.351562 C 256.628906 364.28125 263.199219 359.171875 270.15625 354.535156 C 270.964844 353.996094 272.011719 353.742188 272.503906 352.742188 C 272.171875 351.804688 271.347656 352.085938 270.710938 352.09375 C 262.664062 352.167969 254.613281 352.027344 246.59375 351.296875 C 244.394531 351.09375 242.816406 351.765625 241.21875 353.253906 C 235.53125 358.542969 230.800781 364.371094 229.375 372.292969 C 229.324219 372.5625 229.191406 372.835938 229.046875 373.074219 C 229 373.152344 228.78125 373.113281 228.195312 373.171875 C 228.1875 368.71875 229.984375 364.960938 232.195312 361.378906 C 234.386719 357.828125 237.484375 355.007812 240.3125 352.003906 C 239.640625 350.625 238.5 351.019531 237.617188 350.953125 C 232.457031 350.5625 227.289062 350.316406 222.136719 349.863281 C 220.203125 349.699219 218.824219 350.480469 217.484375 351.636719 C 212.265625 356.128906 208.386719 361.554688 205.945312 368.019531 C 205.40625 369.445312 205.324219 371.113281 204.070312 372.363281 C 203.671875 369.300781 205.101562 365.324219 208.132812 360.292969 C 210.425781 356.496094 213.695312 353.503906 216.96875 349.691406 C 212.824219 349.335938 209.300781 349.011719 205.777344 348.730469 C 202.484375 348.46875 199.15625 348.457031 195.902344 347.949219 C 193.089844 347.511719 191.265625 348.503906 189.628906 350.625 C 185.84375 355.523438 183.71875 361.082031 182.714844 367.132812 C 182.460938 368.652344 182.195312 370.171875 181.832031 372.292969 C 180.113281 366.234375 182.207031 359.792969 189.4375 347.925781 C 186.308594 347.15625 183.222656 347.035156 180.140625 346.851562 C 178.359375 346.75 177.605469 348.027344 176.875 349.238281 C 173.863281 354.230469 171.988281 359.617188 171.429688 365.433594 C 171.238281 367.425781 171.265625 369.445312 170.433594 371.351562 C 168.328125 367.753906 170.769531 356.65625 176.074219 347.1875 C 175.332031 345.988281 174.066406 346.277344 172.972656 346.160156 C 170.546875 345.890625 168.109375 345.730469 165.683594 345.46875 C 161.3125 344.996094 161.03125 345.0625 159.089844 349.164062 C 156.4375 354.785156 154.578125 360.644531 154.050781 366.890625 C 153.925781 368.398438 154.105469 369.996094 153.332031 371.757812 C 151.585938 366.382812 152.5625 362 159.121094 345.144531 C 154.144531 344.09375 149.132812 343.953125 144.164062 343.585938 C 142.273438 343.449219 141.164062 344.867188 140.480469 346.648438 C 137.828125 353.523438 135.6875 360.492188 135.84375 367.980469 C 135.863281 369.066406 136.328125 370.257812 135.296875 371.414062 C 134.15625 370.902344 134.445312 369.8125 134.394531 368.957031 C 133.964844 361.628906 135.851562 354.726562 138.367188 347.949219 C 138.71875 347.007812 139.113281 346.082031 139.515625 345.160156 C 140.183594 343.640625 139.410156 343.148438 138.042969 342.847656 C 131.605469 341.4375 130.257812 342.046875 127.027344 347.828125 C 123.519531 354.113281 121.824219 360.855469 121.710938 368.03125 C 121.691406 369.292969 122.140625 370.609375 121.394531 371.832031 C 119.839844 368.800781 120.003906 362.949219 121.789062 356.527344 C 123.1875 351.519531 125.742188 347.046875 128.695312 342.011719 C 124.472656 341.535156 120.710938 341.101562 116.945312 340.691406 C 115.617188 340.546875 114.863281 341.496094 114.074219 342.324219 C 111.5625 344.960938 109.652344 347.945312 108.460938 351.414062 C 106.488281 357.171875 105.570312 363.109375 105.238281 369.160156 C 105.164062 370.511719 105.371094 371.925781 104.71875 373.472656 C 103.3125 370.371094 103.710938 363.628906 105.476562 356.195312 C 106.847656 350.417969 109.054688 345.058594 113.671875 340.5625 C 109.441406 339.195312 105.683594 339.230469 102.085938 338.429688 C 100.355469 338.042969 99.46875 339.214844 98.519531 340.308594 C 94.378906 345.101562 91.921875 350.707031 90.523438 356.816406 C 89.207031 362.574219 88.414062 368.398438 88.765625 374.582031 C 74.515625 367.289062 59.628906 367.914062 44.613281 369.851562 C 38.777344 370.609375 32.933594 371.363281 27.128906 372.335938 C 25.1875 372.660156 24.539062 372.035156 24.222656 370.316406 C 23.515625 366.488281 22.167969 362.859375 20.816406 359.21875 C 18.085938 351.84375 13.390625 346.019531 7.285156 341.191406 C 5.710938 339.949219 4.359375 339.550781 2.574219 341.125 C 10.007812 349.886719 16.839844 358.925781 19.773438 370.246094 C 14.78125 359.265625 8.386719 349.226562 -0.117188 340.6875 C 0.34375 340.191406 0.511719 339.839844 0.71875 339.816406 C 4.703125 339.355469 5.59375 336.617188 5.867188 333.191406 C 7.304688 315.382812 7.878906 297.589844 4.289062 279.953125 C 3.363281 275.40625 3.105469 270.695312 0.640625 266.230469 C 2.847656 266.421875 2.96875 267.816406 3.277344 268.742188 C 4.292969 271.800781 6.449219 272.824219 9.472656 273.089844 C 15.136719 273.589844 20.664062 272.804688 26.136719 271.585938 C 29.351562 270.871094 32.476562 269.75 35.632812 268.792969 C 36.792969 268.441406 37.734375 267.90625 37.621094 266.417969 C 37.316406 262.425781 37.058594 258.429688 36.777344 254.425781 C 34.910156 253.953125 33.480469 254.761719 32 255.167969 C 24.617188 257.195312 17.09375 258.238281 9.445312 258.320312 C 7.246094 258.34375 4.941406 258.585938 2.867188 257.351562 C 3.332031 256.484375 3.902344 256.53125 4.445312 256.585938 C 14.625 257.660156 24.460938 255.828125 34.1875 253.0625 C 35.304688 252.742188 36.617188 252.621094 36.578125 251.089844 C 36.433594 245.523438 36.210938 239.957031 36.015625 234.335938 C 24.367188 234.90625 13.125 235.253906 2.148438 232.078125 C 7.304688 232.070312 12.375 233.214844 17.554688 233.125 C 22.832031 233.03125 28.125 233.523438 33.414062 232.867188 C 33.601562 231.164062 32.226562 231.253906 31.464844 230.886719 C 28.097656 229.273438 24.707031 227.699219 21.273438 226.238281 C 13.21875 222.816406 7.199219 216.941406 1.8125 210.285156 C 1.550781 209.960938 1.410156 209.542969 1.25 209.148438 C 1.210938 209.0625 1.335938 208.910156 1.410156 208.730469 C 2.625 208.574219 3.078125 209.632812 3.632812 210.328125 C 9.992188 218.28125 18.007812 223.871094 27.507812 227.445312 C 29.65625 228.25 31.695312 229.335938 33.808594 230.238281 C 35.109375 230.789062 36.078125 230.613281 36.066406 228.886719 C 36.066406 228.453125 36.023438 228.015625 36.097656 227.59375 C 36.914062 222.660156 35.160156 219.644531 30.535156 217.042969 C 19.125 210.625 10.070312 201.34375 2.082031 191.046875 C 0.902344 189.523438 -0.390625 187.96875 -0.46875 185.71875 C 9.34375 198.886719 20.679688 210.296875 35.125 218.191406 C 36.578125 217.117188 36.117188 215.867188 36.152344 214.816406 C 36.390625 207.78125 36.425781 200.734375 36.820312 193.707031 C 36.964844 191.171875 35.984375 190.289062 33.820312 189.394531 C 20.0625 183.734375 8.597656 175.195312 0.753906 162.289062 C 0.378906 161.675781 0 161.0625 -0.308594 160.417969 C -0.40625 160.214844 -0.28125 159.898438 -0.222656 159.222656 C 2.4375 161.117188 3.300781 164.0625 5.027344 166.316406 C 6.78125 168.609375 8.59375 170.832031 10.734375 172.753906 C 12.980469 174.769531 15.246094 176.773438 17.640625 178.601562 C 19.921875 180.34375 22.339844 181.910156 24.757812 183.457031 C 27.246094 185.046875 29.828125 186.472656 33.398438 187.625 C 18.902344 171.824219 5.929688 156.078125 0.234375 135.734375 C 3.515625 141.847656 5.882812 148.4375 9.441406 154.449219 C 13.039062 160.53125 17.304688 166.125 21.566406 171.726562 C 25.875 177.398438 30.382812 182.894531 36.765625 187.648438 C 37.128906 184.019531 37.429688 181.222656 37.6875 178.421875 C 38.253906 172.273438 38.753906 166.117188 39.386719 159.972656 C 39.554688 158.371094 39.195312 157.394531 37.808594 156.40625 C 21.535156 144.804688 9.984375 129.171875 0.25 112.03125 C -0.0664062 111.476562 -0.640625 110.839844 0.308594 109.566406 C 5.640625 118.414062 10.824219 127.082031 17.273438 134.878906 C 23.683594 142.640625 30.738281 149.679688 39.222656 155.8125 C 40.757812 151.566406 40.539062 147.644531 41.246094 143.890625 C 41.773438 141.082031 42.550781 138.078125 42.042969 135.378906 C 41.507812 132.550781 38.21875 131.320312 36.191406 129.34375 C 24.492188 117.96875 16.207031 104.203125 8.515625 90.027344 C 5.292969 84.082031 2.535156 77.921875 0.628906 71.414062 C 0.332031 70.402344 -0.449219 69.367188 0.636719 68.046875 C 9.074219 90.886719 20.632812 111.652344 37.898438 128.894531 C 39.179688 130.175781 40.4375 131.574219 42.609375 132.371094 C 43.851562 127.351562 44.601562 122.453125 45.253906 117.539062 C 45.433594 116.191406 44.53125 115.089844 43.964844 113.941406 C 30.617188 87.003906 19.832031 58.996094 9.195312 30.925781 C 5.628906 21.515625 3.648438 11.617188 0.867188 1.964844 C 0.757812 1.582031 0.855469 1.136719 0.855469 0.644531 C 2.261719 0.839844 2.234375 1.988281 2.476562 2.828125 C 3.824219 7.519531 5.152344 12.210938 6.414062 16.929688 C 10.355469 31.679688 16.160156 45.75 22.019531 59.804688 C 28.707031 75.839844 34.742188 92.15625 42.496094 107.730469 C 57.21875 137.292969 75.523438 164.515625 96.332031 190.085938 C 103.773438 199.222656 111.414062 208.199219 119.070312 217.152344 C 123.96875 222.882812 129 228.5 134.089844 234.054688 C 139.136719 239.5625 144.230469 245.039062 149.5 250.335938 C 154.863281 255.734375 160.285156 261.105469 165.996094 266.132812 C 189.308594 286.667969 214.941406 303.945312 241.816406 319.40625 C 272.773438 337.214844 305.050781 352.195312 338.914062 363.605469 C 350.0625 367.363281 361.269531 371.027344 372.839844 373.386719 C 373.46875 373.515625 374.277344 373.410156 374.964844 374.800781 " fill-opacity="1" fill-rule="nonzero"/></g></svg>